<?xml version="1.0" standalone="no"?>
<!DOCTYPE svg PUBLIC "-//W3C//DTD SVG 20010904//EN"
 "http://www.w3.org/TR/2001/REC-SVG-20010904/DTD/svg10.dtd">
<svg version="1.0" xmlns="http://www.w3.org/2000/svg"
 width="1600.000000pt" height="1600.000000pt" viewBox="0 0 1600.000000 1600.000000"
 preserveAspectRatio="xMidYMid meet">

<g transform="translate(0.000000,1600.000000) scale(0.100000,-0.100000)"
fill="#000000" stroke="none">
<path d="M7690 4435 c0 -176 2 -205 15 -205 13 0 15 29 15 205 0 176 -2 205
-15 205 -13 0 -15 -29 -15 -205z"/>
<path d="M2964 4616 c-17 -8 -36 -26 -43 -43 -23 -56 14 -100 99 -118 51 -10
80 -32 80 -60 0 -50 -74 -70 -147 -40 -43 18 -43 18 -43 2 0 -19 33 -35 88
-43 93 -12 162 47 130 113 -10 22 -27 33 -83 51 -89 28 -111 48 -94 85 15 33
64 45 119 28 47 -14 50 -14 50 2 0 15 -62 37 -101 37 -13 -1 -38 -7 -55 -14z"/>
<path d="M3585 4611 c-49 -22 -69 -44 -85 -94 -29 -90 32 -189 125 -202 132
-20 231 97 181 216 -18 43 -44 67 -93 85 -51 18 -81 17 -128 -5z m134 -25 c87
-46 87 -186 0 -232 -59 -30 -139 -11 -174 42 -24 37 -24 111 0 148 34 51 117
71 174 42z"/>
<path d="M3978 4622 c-64 -4 -61 -20 5 -24 l52 -3 5 -140 c3 -83 9 -140 15
-140 6 0 12 57 15 140 l5 140 53 3 c65 4 69 22 5 23 -27 0 -61 1 -78 2 -16 1
-51 1 -77 -1z"/>
<path d="M5549 4622 l-26 -3 4 -151 c2 -84 5 -154 7 -156 13 -12 26 15 26 54
l0 44 56 0 c93 0 154 41 154 103 0 33 -27 83 -49 93 -20 9 -138 20 -172 16z
m145 -33 c50 -23 57 -103 13 -134 -14 -9 -45 -15 -84 -15 l-63 0 0 80 0 80 55
0 c30 0 65 -5 79 -11z"/>
<path d="M6027 4622 l-98 -3 3 -152 3 -152 104 0 c73 0 106 4 108 12 3 9 -21
13 -89 15 l-93 3 -3 58 -3 57 81 0 c64 0 80 3 80 15 0 12 -16 15 -81 15 l-80
0 3 53 3 52 88 3 c48 1 87 7 87 12 0 14 -9 15 -113 12z"/>
<path d="M6753 4622 c-29 -2 -53 -7 -53 -12 0 -5 24 -10 53 -12 l52 -3 5 -139
c3 -97 9 -141 17 -143 9 -3 13 31 15 139 l3 143 53 3 c28 2 52 7 52 12 0 9
-117 17 -197 12z"/>
<path d="M8196 4620 c-60 -18 -106 -83 -106 -150 0 -107 100 -180 208 -151 39
11 70 36 59 48 -4 3 -23 -2 -43 -12 -73 -35 -163 2 -185 76 -17 54 1 110 44
141 41 29 126 31 156 4 13 -12 21 -14 26 -6 10 17 -13 39 -54 50 -42 12 -65
12 -105 0z"/>
<path d="M10335 4619 c-71 -23 -109 -85 -103 -166 4 -44 11 -60 38 -89 104
-106 280 -38 280 109 0 48 -27 97 -70 129 -30 22 -104 31 -145 17z m153 -64
c32 -35 34 -41 30 -93 -4 -48 -10 -60 -41 -89 -31 -28 -44 -33 -84 -33 -55 0
-106 30 -124 73 -17 41 -6 114 22 144 33 35 56 43 113 39 42 -3 55 -9 84 -41z"/>
<path d="M10934 4620 c-35 -11 -60 -35 -46 -44 6 -3 23 1 38 9 78 40 158 -10
124 -77 -7 -12 -46 -58 -88 -100 -53 -54 -73 -81 -66 -88 16 -16 206 -9 212 8
3 9 -17 12 -77 12 -45 0 -81 3 -81 7 0 4 30 37 66 74 57 58 67 73 71 110 4 37
1 47 -20 67 -28 27 -86 36 -133 22z"/>
<path d="M11368 4602 c-64 -70 -149 -184 -146 -194 3 -9 29 -12 86 -9 l81 3 3
-44 c4 -58 31 -60 38 -3 4 29 10 40 23 41 33 3 37 4 37 14 0 6 -13 10 -29 10
-27 0 -30 3 -33 38 -2 25 -8 37 -18 37 -10 0 -16 -12 -18 -37 l-3 -38 -60 0
c-32 0 -59 4 -59 9 0 5 19 33 43 63 78 97 98 126 89 132 -5 3 -20 -7 -34 -22z"/>
<path d="M11672 4610 c-42 -26 -62 -73 -62 -147 0 -72 26 -118 77 -139 92 -39
163 25 163 148 0 73 -22 118 -69 143 -40 20 -69 19 -109 -5z m109 -23 c28 -21
41 -58 42 -116 0 -86 -30 -130 -90 -131 -20 0 -43 9 -60 24 -26 23 -28 29 -28
106 0 77 2 83 28 106 31 26 81 32 108 11z"/>
<path d="M12060 4614 c-40 -25 -61 -60 -67 -112 -15 -131 73 -223 170 -177 59
28 93 132 68 207 -25 76 -114 119 -171 82z m93 -25 c28 -15 35 -25 48 -72 32
-117 -56 -220 -138 -162 -43 30 -55 132 -23 194 26 52 65 65 113 40z"/>
<path d="M12414 4620 c-35 -11 -60 -35 -46 -44 6 -3 23 1 38 9 41 21 90 19
114 -5 38 -38 21 -77 -79 -173 -39 -38 -71 -75 -71 -83 0 -11 21 -14 105 -14
87 0 105 3 105 15 0 12 -16 15 -82 15 l-82 0 60 63 c78 79 94 104 94 142 0 61
-78 99 -156 75z"/>
<path d="M12794 4620 c-30 -12 -70 -68 -79 -108 -18 -88 30 -185 100 -198 80
-15 144 57 145 161 0 106 -83 179 -166 145z m104 -47 c41 -56 39 -167 -3 -209
-30 -30 -83 -32 -113 -4 -22 20 -42 77 -42 118 0 35 25 88 51 106 29 21 88 15
107 -11z"/>
<path d="M2342 4468 c2 -107 7 -153 15 -155 8 -3 13 16 15 64 l3 68 78 3 c60
2 77 6 77 18 0 8 -6 14 -12 13 -7 -1 -43 -1 -80 0 -68 1 -68 1 -68 30 0 16 3
43 6 60 l7 31 83 0 c49 0 84 4 84 10 0 6 -42 10 -105 10 l-106 0 3 -152z"/>
<path d="M2712 4468 c2 -110 6 -152 16 -156 9 -3 12 32 12 152 0 133 -2 156
-15 156 -13 0 -15 -21 -13 -152z"/>
<path d="M3300 4464 c0 -120 3 -155 13 -152 9 4 13 46 15 156 2 131 0 152 -13
152 -13 0 -15 -23 -15 -156z"/>
<path d="M4320 4465 l0 -156 107 3 c72 2 108 7 110 15 3 9 -21 13 -89 15 l-93
3 0 55 0 55 83 3 c60 2 82 6 79 15 -2 8 -32 13 -85 15 l-81 3 2 52 2 52 88 3
c124 4 110 22 -18 22 l-105 0 0 -155z"/>
<path d="M4710 4465 c0 -121 3 -156 13 -153 6 3 13 25 15 51 l3 47 57 0 57 -1
34 -49 c18 -28 40 -50 47 -50 20 0 17 10 -16 54 -17 22 -30 43 -30 47 0 4 14
21 30 37 39 40 42 97 6 139 -23 26 -29 28 -120 31 l-96 4 0 -157z m164 121
c39 -16 53 -56 37 -99 -13 -34 -46 -47 -117 -47 l-54 0 0 80 0 80 50 0 c28 0
66 -6 84 -14z"/>
<path d="M5140 4474 c-80 -178 -75 -164 -55 -164 9 0 23 18 35 45 l19 45 86 0
86 0 20 -45 c19 -44 32 -54 43 -36 3 5 -16 56 -42 112 -26 57 -56 123 -67 147
-13 30 -24 42 -39 42 -17 -1 -32 -26 -86 -146z m125 34 c17 -39 32 -75 33 -80
2 -4 -28 -8 -67 -8 -56 0 -71 3 -71 15 0 20 58 145 67 145 5 0 22 -32 38 -72z"/>
<path d="M6310 4528 c0 -166 29 -213 131 -213 53 0 62 4 91 32 32 32 32 33 36
153 4 106 3 120 -12 120 -14 0 -16 -13 -16 -87 0 -104 -13 -157 -43 -178 -30
-21 -90 -19 -118 4 -22 18 -24 28 -29 137 -4 103 -7 119 -22 122 -16 3 -18 -6
-18 -90z"/>
<path d="M7123 4523 c-77 -166 -91 -201 -85 -207 13 -13 23 -4 44 39 l22 45
84 0 83 0 17 -40 c16 -37 38 -57 50 -46 2 3 -26 73 -63 156 -85 187 -88 188
-152 53z m102 -15 c17 -39 32 -75 33 -80 2 -4 -28 -8 -67 -8 -54 0 -71 3 -71
14 0 20 58 146 67 146 4 0 22 -32 38 -72z"/>
<path d="M8522 4468 c3 -128 5 -153 18 -153 11 0 16 13 18 48 l3 47 54 0 c52
0 54 -1 90 -50 56 -76 79 -64 26 14 l-29 42 34 32 c38 36 44 74 20 121 -21 39
-56 51 -152 51 l-85 0 3 -152z m172 121 c36 -17 52 -61 36 -99 -17 -41 -37
-50 -109 -50 l-61 0 0 80 0 80 55 0 c30 0 65 -5 79 -11z"/>
<path d="M8932 4468 l3 -153 108 -3 c91 -2 107 0 107 13 0 12 -16 15 -90 15
l-90 0 0 60 0 60 81 0 c60 0 80 3 77 13 -3 8 -31 13 -81 15 l-77 3 0 54 0 55
90 0 c53 0 90 4 90 10 0 6 -43 10 -110 10 l-111 0 3 -152z"/>
<path d="M9322 4468 c2 -110 6 -152 16 -156 8 -2 12 12 12 51 0 86 1 87 91 87
66 0 77 2 73 15 -5 12 -24 15 -86 15 l-79 0 3 58 3 57 88 3 c124 4 110 22 -18
22 l-106 0 3 -152z"/>
<path d="M9692 4468 c2 -110 6 -152 16 -156 9 -3 12 32 12 152 0 133 -2 156
-15 156 -13 0 -15 -21 -13 -152z"/>
<path d="M9870 4611 c0 -6 24 -11 53 -13 l52 -3 3 -140 c2 -77 5 -141 7 -143
2 -2 8 -1 14 3 7 4 11 58 11 146 l0 139 55 0 c30 0 55 5 55 10 0 6 -48 10
-125 10 -72 0 -125 -4 -125 -9z"/>
<path d="M13392 4468 c2 -107 7 -153 15 -155 8 -3 13 16 15 64 l3 68 78 3 c59
2 77 6 77 17 0 8 -8 14 -17 13 -10 -1 -46 0 -81 0 l-63 2 3 58 3 57 88 3 c124
4 110 22 -18 22 l-106 0 3 -152z"/>
<path d="M13100 4470 c0 -6 27 -10 60 -10 33 0 60 4 60 10 0 6 -27 10 -60 10
-33 0 -60 -4 -60 -10z"/>
</g>
</svg>
